ISO-10303-21;
HEADER;
FILE_DESCRIPTION (( 'STEP AP214' ),
    '1' );
FILE_NAME ('LightDiffuser.STEP',
    '2026-09-02T17:55:08',
    ( '' ),
    ( '' ),
    'SwSTEP 2.0',
    'SolidWorks 2025',
    '' );
FILE_SCHEMA (( 'AUTOMOTIVE_DESIGN' ));
ENDSEC;

DATA;
#1 = FACE_OUTER_BOUND ( 'NONE', #227, .T. ) ;
#2 = ORIENTED_EDGE ( 'NONE', *, *, #193, .F. ) ;
#3 = CLOSED_SHELL ( 'NONE', ( #16, #349, #58, #366, #128, #49, #305, #301, #267, #312, #386, #171 ) ) ;
#4 = AXIS2_PLACEMENT_3D ( 'NONE', #323, #82, #168 ) ;
#5 = PRODUCT ( 'LightDiffuser', 'LightDiffuser', '', ( #143 ) ) ;
#6 = CARTESIAN_POINT ( 'NONE',  ( -80.78852960328464405, 86.94190798175786483, 113.5057407317052736 ) ) ;
#7 = DIRECTION ( 'NONE',  ( 1.000000000000000000, 0.000000000000000000, 0.000000000000000000 ) ) ;
#8 = FACE_OUTER_BOUND ( 'NONE', #354, .T. ) ;
#9 = ORIENTED_EDGE ( 'NONE', *, *, #228, .F. ) ;
#10 = DIRECTION ( 'NONE',  ( -1.000000000000000000, -0.000000000000000000, -0.000000000000000000 ) ) ;
#11 = ORIENTED_EDGE ( 'NONE', *, *, #134, .F. ) ;
#12 = VECTOR ( 'NONE', #308, 1000.000000000000000 ) ;
#13 = FACE_OUTER_BOUND ( 'NONE', #19, .T. ) ;
#14 = ORIENTED_EDGE ( 'NONE', *, *, #381, .T. ) ;
#15 = DIRECTION ( 'NONE',  ( 0.000000000000000000, 0.000000000000000000, 1.000000000000000000 ) ) ;
#16 = ADVANCED_FACE ( 'NONE', ( #32 ), #152, .F. ) ;
#17 = ORIENTED_EDGE ( 'NONE', *, *, #287, .T. ) ;
#18 = LINE ( 'NONE', #48, #231 ) ;
#19 = EDGE_LOOP ( 'NONE', ( #324, #139, #9, #47 ) ) ;
#20 = APPLICATION_CONTEXT ( 'automotive_design' ) ;
#21 = VECTOR ( 'NONE', #42, 1000.000000000000000 ) ;
#22 = ORIENTED_EDGE ( 'NONE', *, *, #234, .F. ) ;
#23 = EDGE_CURVE ( 'NONE', #313, #350, #57, .T. ) ;
#24 = ORIENTED_EDGE ( 'NONE', *, *, #29, .T. ) ;
#25 = SHAPE_DEFINITION_REPRESENTATION ( #249, #44 ) ;
#26 = ORIENTED_EDGE ( 'NONE', *, *, #23, .F. ) ;
#27 = DIRECTION ( 'NONE',  ( 0.000000000000000000, -0.3946237708965886770, 0.9188427936504462989 ) ) ;
#28 = CARTESIAN_POINT ( 'NONE',  ( -80.78852960328464405, 132.5725510854526306, 67.05698914524786858 ) ) ;
#29 = EDGE_CURVE ( 'NONE', #291, #352, #209, .T. ) ;
#30 = CARTESIAN_POINT ( 'NONE',  ( -80.38852960328463837, 84.40659341147951977, 67.05698914522911025 ) ) ;
#31 = PLANE ( 'NONE',  #60 ) ;
#32 = FACE_OUTER_BOUND ( 'NONE', #363, .T. ) ;
#33 = AXIS2_PLACEMENT_3D ( 'NONE', #357, #185, #272 ) ;
#34 = CARTESIAN_POINT ( 'NONE',  ( -80.78852960328464405, 84.40659341145575922, 159.9538544160916445 ) ) ;
#35 = EDGE_CURVE ( 'NONE', #190, #291, #391, .T. ) ;
#36 = VECTOR ( 'NONE', #284, 1000.000000000000000 ) ;
#37 = CARTESIAN_POINT ( 'NONE',  ( -80.78852960328464405, 84.40659341145575922, 159.9538544160916445 ) ) ;
#38 = CARTESIAN_POINT ( 'NONE',  ( -80.38852960328463837, 84.40659341145575922, 159.9538544160916445 ) ) ;
#39 = AXIS2_PLACEMENT_3D ( 'NONE', #243, #303, #64 ) ;
#40 = LINE ( 'NONE', #157, #129 ) ;
#41 = CARTESIAN_POINT ( 'NONE',  ( -80.38852960328463837, 84.40659341147951977, 67.05698914522911025 ) ) ;
#42 = DIRECTION ( 'NONE',  ( 0.000000000000000000, -0.7097959797099222534, -0.7044073162507837882 ) ) ;
#43 = VECTOR ( 'NONE', #165, 1000.000000000000000 ) ;
#44 = ADVANCED_BREP_SHAPE_REPRESENTATION ( 'LightDiffuser', ( #150, #100 ), #212 ) ;
#45 = VERTEX_POINT ( 'NONE', #240 ) ;
#46 = LINE ( 'NONE', #384, #239 ) ;
#47 = ORIENTED_EDGE ( 'NONE', *, *, #103, .T. ) ;
#48 = CARTESIAN_POINT ( 'NONE',  ( -80.78852960328464405, 132.5725510854288132, 159.9538544160975846 ) ) ;
#49 = ADVANCED_FACE ( 'NONE', ( #182 ), #122, .F. ) ;
#50 = ORIENTED_EDGE ( 'NONE', *, *, #23, .T. ) ;
#51 = CARTESIAN_POINT ( 'NONE',  ( -80.38852960328463837, 75.27958632448758181, 150.8961381830966673 ) ) ;
#52 = DIRECTION ( 'NONE',  ( 0.000000000000000000, -0.3946237708961178869, -0.9188427936506484706 ) ) ;
#53 = VECTOR ( 'NONE', #224, 1000.000000000000000 ) ;
#54 = ORIENTED_EDGE ( 'NONE', *, *, #123, .T. ) ;
#55 = DIRECTION ( 'NONE',  ( 1.000000000000000000, 0.000000000000000000, 0.000000000000000000 ) ) ;
#56 = ORIENTED_EDGE ( 'NONE', *, *, #228, .T. ) ;
#57 = LINE ( 'NONE', #277, #210 ) ;
#58 = ADVANCED_FACE ( 'NONE', ( #335, #358 ), #183, .F. ) ;
#59 = DIRECTION ( 'NONE',  ( 0.000000000000000000, 0.3946237708961178869, 0.9188427936506485816 ) ) ;
#60 = AXIS2_PLACEMENT_3D ( 'NONE', #137, #360, #223 ) ;
#61 = UNCERTAINTY_MEASURE_WITH_UNIT (LENGTH_MEASURE( 1.000000000000000082E-05 ), #161, 'distance_accuracy_value', 'NONE');
#62 = CARTESIAN_POINT ( 'NONE',  ( -80.38852960328463837, 84.40659341145575922, 159.9538544160916445 ) ) ;
#63 = DIRECTION ( 'NONE',  ( 0.000000000000000000, -2.560976228518436364E-13, 1.000000000000000000 ) ) ;
#64 = DIRECTION ( 'NONE',  ( 0.000000000000000000, 1.000000000000000000, 1.233172445557780189E-13 ) ) ;
#65 = EDGE_CURVE ( 'NONE', #387, #190, #94, .T. ) ;
#66 = PRODUCT_DEFINITION ( 'UNKNOWN', '', #309, #121 ) ;
#67 = LINE ( 'NONE', #186, #12 ) ;
#68 = CARTESIAN_POINT ( 'NONE',  ( -80.78852960328464405, 75.27958632450673804, 76.11470537821938365 ) ) ;
#69 = LINE ( 'NONE', #170, #315 ) ;
#70 = LINE ( 'NONE', #41, #273 ) ;
#71 = ORIENTED_EDGE ( 'NONE', *, *, #65, .T. ) ;
#72 = EDGE_CURVE ( 'NONE', #144, #322, #307, .T. ) ;
#73 = DIRECTION ( 'NONE',  ( 0.000000000000000000, 0.000000000000000000, 1.000000000000000000 ) ) ;
#74 = COLOUR_RGB ( '',0.7921568627450980005, 0.8196078431372548767, 0.9333333333333333481 ) ;
#75 = AXIS2_PLACEMENT_3D ( 'NONE', #346, #77, #156 ) ;
#76 = SURFACE_STYLE_FILL_AREA ( #310 ) ;
#77 = DIRECTION ( 'NONE',  ( 1.000000000000000000, 0.000000000000000000, 0.000000000000000000 ) ) ;
#78 = ORIENTED_EDGE ( 'NONE', *, *, #65, .F. ) ;
#79 = LINE ( 'NONE', #279, #382 ) ;
#80 = VERTEX_POINT ( 'NONE', #28 ) ;
#81 = VERTEX_POINT ( 'NONE', #90 ) ;
#82 = DIRECTION ( 'NONE',  ( 1.000000000000000000, 0.000000000000000000, 0.000000000000000000 ) ) ;
#83 = ORIENTED_EDGE ( 'NONE', *, *, #193, .T. ) ;
#84 = DIRECTION ( 'NONE',  ( 0.000000000000000000, -1.000000000000000000, -1.233172445557780189E-13 ) ) ;
#85 = ORIENTED_EDGE ( 'NONE', *, *, #134, .T. ) ;
#86 = CARTESIAN_POINT ( 'NONE',  ( -80.38852960328463837, 142.4310355314437402, 136.9993391091380772 ) ) ;
#87 = AXIS2_PLACEMENT_3D ( 'NONE', #264, #353, #232 ) ;
#88 = EDGE_LOOP ( 'NONE', ( #2, #293 ) ) ;
#89 = DIRECTION ( 'NONE',  ( 0.000000000000000000, 0.000000000000000000, 1.000000000000000000 ) ) ;
#90 = CARTESIAN_POINT ( 'NONE',  ( -80.38852960328463837, 132.5725510854288132, 159.9538544160975846 ) ) ;
#91 = AXIS2_PLACEMENT_3D ( 'NONE', #218, #289, #252 ) ;
#92 = CARTESIAN_POINT ( 'NONE',  ( -80.38852960328463837, 75.27958632448758181, 150.8961381830966673 ) ) ;
#93 = EDGE_CURVE ( 'NONE', #291, #176, #213, .T. ) ;
#94 = LINE ( 'NONE', #30, #118 ) ;
#95 = CARTESIAN_POINT ( 'NONE',  ( -80.78852960328464405, 132.5725510854288132, 159.9538544160975846 ) ) ;
#96 = DIRECTION ( 'NONE',  ( 1.000000000000000000, 0.000000000000000000, 0.000000000000000000 ) ) ;
#97 = DIRECTION ( 'NONE',  ( 0.000000000000000000, 2.560976228518436364E-13, -1.000000000000000000 ) ) ;
#98 = CARTESIAN_POINT ( 'NONE',  ( -80.78852960328464405, 142.4310355314557910, 90.01150445221239238 ) ) ;
#99 = STYLED_ITEM ( 'NONE', ( #196 ), #150 ) ;
#100 = AXIS2_PLACEMENT_3D ( 'NONE', #261, #15, #55 ) ;
#101 = CARTESIAN_POINT ( 'NONE',  ( -80.78852960328464405, 142.4310355314557910, 90.01150445221239238 ) ) ;
#102 = ORIENTED_EDGE ( 'NONE', *, *, #177, .T. ) ;
#103 = EDGE_CURVE ( 'NONE', #120, #195, #304, .T. ) ;
#104 =( NAMED_UNIT ( * ) SI_UNIT ( $, .STERADIAN. ) SOLID_ANGLE_UNIT ( ) );
#105 = ORIENTED_EDGE ( 'NONE', *, *, #199, .F. ) ;
#106 = APPLICATION_CONTEXT ( 'automotive_design' ) ;
#107 = CARTESIAN_POINT ( 'NONE',  ( -80.38852960328463837, 132.5725510854526306, 67.05698914524786858 ) ) ;
#108 = ORIENTED_EDGE ( 'NONE', *, *, #199, .T. ) ;
#109 = CARTESIAN_POINT ( 'NONE',  ( -80.38852960328463837, 75.27958632450673804, 76.11470537821938365 ) ) ;
#110 = FACE_BOUND ( 'NONE', #88, .T. ) ;
#111 = ORIENTED_EDGE ( 'NONE', *, *, #287, .F. ) ;
#112 = ORIENTED_EDGE ( 'NONE', *, *, #234, .T. ) ;
#113 = ORIENTED_EDGE ( 'NONE', *, *, #164, .T. ) ;
#114 = DIRECTION ( 'NONE',  ( -1.000000000000000000, -0.000000000000000000, -0.000000000000000000 ) ) ;
#115 = ORIENTED_EDGE ( 'NONE', *, *, #158, .T. ) ;
#116 = APPLICATION_PROTOCOL_DEFINITION ( 'draft international standard', 'automotive_design', 1998, #20 ) ;
#117 = ORIENTED_EDGE ( 'NONE', *, *, #318, .F. ) ;
#118 = VECTOR ( 'NONE', #302, 1000.000000000000000 ) ;
#119 = CARTESIAN_POINT ( 'NONE',  ( -80.38852960328463837, 132.5725510854526306, 67.05698914524786858 ) ) ;
#120 = VERTEX_POINT ( 'NONE', #62 ) ;
#121 = PRODUCT_DEFINITION_CONTEXT ( 'detailed design', #106, 'design' ) ;
#122 = PLANE ( 'NONE',  #39 ) ;
#123 = EDGE_CURVE ( 'NONE', #45, #313, #388, .T. ) ;
#124 = LINE ( 'NONE', #364, #175 ) ;
#125 = DIRECTION ( 'NONE',  ( 0.000000000000000000, -2.563625224514886665E-13, 1.000000000000000000 ) ) ;
#126 = FACE_OUTER_BOUND ( 'NONE', #174, .T. ) ;
#127 = LINE ( 'NONE', #101, #149 ) ;
#128 = ADVANCED_FACE ( 'NONE', ( #275 ), #392, .F. ) ;
#129 = VECTOR ( 'NONE', #283, 1000.000000000000114 ) ;
#130 = VERTEX_POINT ( 'NONE', #68 ) ;
#131 = CARTESIAN_POINT ( 'NONE',  ( -80.38852960328463837, 75.27958632448758181, 150.8961381830966673 ) ) ;
#132 = VERTEX_POINT ( 'NONE', #245 ) ;
#133 = LINE ( 'NONE', #135, #36 ) ;
#134 = EDGE_CURVE ( 'NONE', #352, #81, #361, .T. ) ;
#135 = CARTESIAN_POINT ( 'NONE',  ( -80.38852960328463837, 132.5725510854288132, 159.9538544160975846 ) ) ;
#136 = DIRECTION ( 'NONE',  ( -1.000000000000000000, -0.000000000000000000, -0.000000000000000000 ) ) ;
#137 = CARTESIAN_POINT ( 'NONE',  ( -80.38852960328463837, 84.40659341147951977, 67.05698914522911025 ) ) ;
#138 = ORIENTED_EDGE ( 'NONE', *, *, #211, .T. ) ;
#139 = ORIENTED_EDGE ( 'NONE', *, *, #247, .F. ) ;
#140 = ORIENTED_EDGE ( 'NONE', *, *, #370, .F. ) ;
#141 = EDGE_CURVE ( 'NONE', #387, #348, #70, .T. ) ;
#142 = AXIS2_PLACEMENT_3D ( 'NONE', #390, #215, #214 ) ;
#143 = PRODUCT_CONTEXT ( 'NONE', #20, 'mechanical' ) ;
#144 = VERTEX_POINT ( 'NONE', #343 ) ;
#145 = APPLICATION_PROTOCOL_DEFINITION ( 'draft international standard', 'automotive_design', 1998, #106 ) ;
#146 = ORIENTED_EDGE ( 'NONE', *, *, #211, .F. ) ;
#147 = DIRECTION ( 'NONE',  ( -1.000000000000000000, -0.000000000000000000, -0.000000000000000000 ) ) ;
#148 = MECHANICAL_DESIGN_GEOMETRIC_PRESENTATION_REPRESENTATION (  '', ( #99 ), #374 ) ;
#149 = VECTOR ( 'NONE', #188, 1000.000000000000000 ) ;
#150 = MANIFOLD_SOLID_BREP ( 'Boss-Extrude1', #3 ) ;
#151 = ORIENTED_EDGE ( 'NONE', *, *, #203, .F. ) ;
#152 = CYLINDRICAL_SURFACE ( 'NONE', #181, 5.099999999999993427 ) ;
#153 = PLANE ( 'NONE',  #217 ) ;
#154 = CARTESIAN_POINT ( 'NONE',  ( -80.38852960328463837, 86.94190798175786483, 113.5057407317052736 ) ) ;
#155 = VECTOR ( 'NONE', #317, 999.9999999999998863 ) ;
#156 = DIRECTION ( 'NONE',  ( 0.000000000000000000, 0.000000000000000000, -1.000000000000000000 ) ) ;
#157 = CARTESIAN_POINT ( 'NONE',  ( -80.78852960328464405, 75.27958632450673804, 76.11470537821938365 ) ) ;
#158 = EDGE_CURVE ( 'NONE', #132, #387, #219, .T. ) ;
#159 = DIRECTION ( 'NONE',  ( 0.000000000000000000, 0.000000000000000000, -1.000000000000000000 ) ) ;
#160 = EDGE_LOOP ( 'NONE', ( #288, #117, #11, #14 ) ) ;
#161 =( LENGTH_UNIT ( ) NAMED_UNIT ( * ) SI_UNIT ( .MILLI., .METRE. ) );
#162 = CIRCLE ( 'NONE', #75, 5.099999999999993427 ) ;
#163 = SURFACE_STYLE_USAGE ( .BOTH. , #189 ) ;
#164 = EDGE_CURVE ( 'NONE', #237, #132, #365, .T. ) ;
#165 = DIRECTION ( 'NONE',  ( -1.000000000000000000, -0.000000000000000000, -0.000000000000000000 ) ) ;
#166 = CARTESIAN_POINT ( 'NONE',  ( -80.38852960328463837, 142.4310355314557910, 90.01150445221239238 ) ) ;
#167 = VECTOR ( 'NONE', #27, 1000.000000000000114 ) ;
#168 = DIRECTION ( 'NONE',  ( 0.000000000000000000, 0.000000000000000000, -1.000000000000000000 ) ) ;
#169 = ORIENTED_EDGE ( 'NONE', *, *, #164, .F. ) ;
#170 = CARTESIAN_POINT ( 'NONE',  ( -80.38852960328463837, 86.94190798175786483, 108.4057407317052792 ) ) ;
#171 = ADVANCED_FACE ( 'NONE', ( #1 ), #221, .F. ) ;
#172 = ORIENTED_EDGE ( 'NONE', *, *, #370, .T. ) ;
#173 = DIRECTION ( 'NONE',  ( 0.000000000000000000, -0.9188427936506485816, 0.3946237708961179425 ) ) ;
#174 = EDGE_LOOP ( 'NONE', ( #102, #331, #233, #271 ) ) ;
#175 = VECTOR ( 'NONE', #97, 1000.000000000000000 ) ;
#176 = VERTEX_POINT ( 'NONE', #98 ) ;
#177 = EDGE_CURVE ( 'NONE', #130, #348, #40, .T. ) ;
#178 = FACE_OUTER_BOUND ( 'NONE', #385, .T. ) ;
#179 = EDGE_LOOP ( 'NONE', ( #112, #298, #260, #326 ) ) ;
#180 = CARTESIAN_POINT ( 'NONE',  ( -80.38852960328463837, 86.94190798175786483, 113.5057407317052736 ) ) ;
#181 = AXIS2_PLACEMENT_3D ( 'NONE', #154, #208, #89 ) ;
#182 = FACE_OUTER_BOUND ( 'NONE', #347, .T. ) ;
#183 = PLANE ( 'NONE',  #33 ) ;
#184 = LINE ( 'NONE', #306, #43 ) ;
#185 = DIRECTION ( 'NONE',  ( 1.000000000000000000, 0.000000000000000000, 0.000000000000000000 ) ) ;
#186 = CARTESIAN_POINT ( 'NONE',  ( -80.78852960328464405, 84.40659341147951977, 67.05698914522911025 ) ) ;
#187 = AXIS2_PLACEMENT_3D ( 'NONE', #6, #7, #159 ) ;
#188 = DIRECTION ( 'NONE',  ( 0.000000000000000000, -2.563625224514886665E-13, 1.000000000000000000 ) ) ;
#189 = SURFACE_SIDE_STYLE ('',( #76 ) ) ;
#190 = VERTEX_POINT ( 'NONE', #191 ) ;
#191 = CARTESIAN_POINT ( 'NONE',  ( -80.38852960328463837, 132.5725510854526306, 67.05698914524786858 ) ) ;
#192 = ORIENTED_EDGE ( 'NONE', *, *, #341, .F. ) ;
#193 = EDGE_CURVE ( 'NONE', #313, #45, #285, .T. ) ;
#194 = DIRECTION ( 'NONE',  ( -1.000000000000000000, -0.000000000000000000, -0.000000000000000000 ) ) ;
#195 = VERTEX_POINT ( 'NONE', #37 ) ;
#196 = PRESENTATION_STYLE_ASSIGNMENT (( #163 ) ) ;
#197 = DIRECTION ( 'NONE',  ( 0.000000000000000000, 0.7097959797099222534, 0.7044073162507837882 ) ) ;
#198 = EDGE_LOOP ( 'NONE', ( #377, #108 ) ) ;
#199 = EDGE_CURVE ( 'NONE', #207, #350, #333, .T. ) ;
#200 = VERTEX_POINT ( 'NONE', #342 ) ;
#201 = FACE_OUTER_BOUND ( 'NONE', #179, .T. ) ;
#202 = ORIENTED_EDGE ( 'NONE', *, *, #381, .F. ) ;
#203 = EDGE_CURVE ( 'NONE', #81, #120, #133, .T. ) ;
#204 = ORIENTED_EDGE ( 'NONE', *, *, #103, .F. ) ;
#205 = AXIS2_PLACEMENT_3D ( 'NONE', #92, #290, #63 ) ;
#206 = CARTESIAN_POINT ( 'NONE',  ( -80.38852960328463837, 132.5725510854526306, 67.05698914524786858 ) ) ;
#207 = VERTEX_POINT ( 'NONE', #367 ) ;
#208 = DIRECTION ( 'NONE',  ( -1.000000000000000000, -0.000000000000000000, -0.000000000000000000 ) ) ;
#209 = LINE ( 'NONE', #248, #230 ) ;
#210 = VECTOR ( 'NONE', #147, 1000.000000000000000 ) ;
#211 = EDGE_CURVE ( 'NONE', #176, #144, #127, .T. ) ;
#212 =( GEOMETRIC_REPRESENTATION_CONTEXT ( 3 ) GLOBAL_UNCERTAINTY_ASSIGNED_CONTEXT ( ( #250 ) ) GLOBAL_UNIT_ASSIGNED_CONTEXT ( ( #296, #330, #226 ) ) REPRESENTATION_CONTEXT ( 'NONE', 'WORKASPACE' ) );
#213 = LINE ( 'NONE', #337, #266 ) ;
#214 = DIRECTION ( 'NONE',  ( 0.000000000000000000, 0.3946237708965887325, -0.9188427936504462989 ) ) ;
#215 = DIRECTION ( 'NONE',  ( 0.000000000000000000, -0.9188427936504462989, -0.3946237708965887325 ) ) ;
#216 = DIRECTION ( 'NONE',  ( 0.000000000000000000, 0.7044073162507837882, -0.7097959797099222534 ) ) ;
#217 = AXIS2_PLACEMENT_3D ( 'NONE', #376, #294, #256 ) ;
#218 = CARTESIAN_POINT ( 'NONE',  ( -80.38852960328463837, 86.94190798175786483, 113.5057407317052736 ) ) ;
#219 = LINE ( 'NONE', #109, #244 ) ;
#220 = ORIENTED_EDGE ( 'NONE', *, *, #72, .F. ) ;
#221 = CYLINDRICAL_SURFACE ( 'NONE', #281, 5.099999999999993427 ) ;
#222 = LINE ( 'NONE', #51, #389 ) ;
#223 = DIRECTION ( 'NONE',  ( 0.000000000000000000, -1.000000000000000000, -3.895441930827375950E-13 ) ) ;
#224 = DIRECTION ( 'NONE',  ( 0.000000000000000000, 2.560976228518436364E-13, -1.000000000000000000 ) ) ;
#225 = EDGE_LOOP ( 'NONE', ( #17, #295, #169, #236 ) ) ;
#226 =( NAMED_UNIT ( * ) SI_UNIT ( $, .STERADIAN. ) SOLID_ANGLE_UNIT ( ) );
#227 = EDGE_LOOP ( 'NONE', ( #380, #54, #50, #105 ) ) ;
#228 = EDGE_CURVE ( 'NONE', #120, #237, #255, .T. ) ;
#229 = ORIENTED_EDGE ( 'NONE', *, *, #141, .T. ) ;
#230 = VECTOR ( 'NONE', #125, 1000.000000000000000 ) ;
#231 = VECTOR ( 'NONE', #84, 1000.000000000000000 ) ;
#232 = DIRECTION ( 'NONE',  ( 0.000000000000000000, 2.563625224514887169E-13, -1.000000000000000000 ) ) ;
#233 = ORIENTED_EDGE ( 'NONE', *, *, #158, .F. ) ;
#234 = EDGE_CURVE ( 'NONE', #80, #176, #257, .T. ) ;
#235 = PLANE ( 'NONE',  #87 ) ;
#236 = ORIENTED_EDGE ( 'NONE', *, *, #247, .T. ) ;
#237 = VERTEX_POINT ( 'NONE', #131 ) ;
#238 = VECTOR ( 'NONE', #59, 999.9999999999998863 ) ;
#239 = VECTOR ( 'NONE', #114, 1000.000000000000000 ) ;
#240 = CARTESIAN_POINT ( 'NONE',  ( -80.38852960328463837, 86.94190798175786483, 108.4057407317052792 ) ) ;
#241 = DIRECTION ( 'NONE',  ( -1.000000000000000000, -0.000000000000000000, -0.000000000000000000 ) ) ;
#242 = EDGE_CURVE ( 'NONE', #190, #80, #345, .T. ) ;
#243 = CARTESIAN_POINT ( 'NONE',  ( -80.38852960328463837, 132.5725510854288132, 159.9538544160975846 ) ) ;
#244 = VECTOR ( 'NONE', #286, 1000.000000000000114 ) ;
#245 = CARTESIAN_POINT ( 'NONE',  ( -80.38852960328463837, 75.27958632450673804, 76.11470537821938365 ) ) ;
#246 = DIRECTION ( 'NONE',  ( -1.000000000000000000, -0.000000000000000000, -0.000000000000000000 ) ) ;
#247 = EDGE_CURVE ( 'NONE', #237, #200, #222, .T. ) ;
#248 = CARTESIAN_POINT ( 'NONE',  ( -80.38852960328463837, 142.4310355314557910, 90.01150445221239238 ) ) ;
#249 = PRODUCT_DEFINITION_SHAPE ( 'NONE', 'NONE',  #66 ) ;
#250 = UNCERTAINTY_MEASURE_WITH_UNIT (LENGTH_MEASURE( 1.000000000000000082E-05 ), #296, 'distance_accuracy_value', 'NONE');
#251 =( NAMED_UNIT ( * ) PLANE_ANGLE_UNIT ( ) SI_UNIT ( $, .RADIAN. ) );
#252 = DIRECTION ( 'NONE',  ( 0.000000000000000000, 0.000000000000000000, -1.000000000000000000 ) ) ;
#253 = DIRECTION ( 'NONE',  ( -1.000000000000000000, -0.000000000000000000, -0.000000000000000000 ) ) ;
#254 = ORIENTED_EDGE ( 'NONE', *, *, #334, .F. ) ;
#255 = LINE ( 'NONE', #38, #329 ) ;
#256 = DIRECTION ( 'NONE',  ( 0.000000000000000000, -0.7097959797102828539, 0.7044073162504203012 ) ) ;
#257 = LINE ( 'NONE', #375, #155 ) ;
#258 = PLANE ( 'NONE',  #205 ) ;
#259 = VECTOR ( 'NONE', #10, 1000.000000000000000 ) ;
#260 = ORIENTED_EDGE ( 'NONE', *, *, #35, .F. ) ;
#261 = CARTESIAN_POINT ( 'NONE',  ( 0.000000000000000000, 0.000000000000000000, 0.000000000000000000 ) ) ;
#262 = ORIENTED_EDGE ( 'NONE', *, *, #203, .T. ) ;
#263 = ORIENTED_EDGE ( 'NONE', *, *, #242, .F. ) ;
#264 = CARTESIAN_POINT ( 'NONE',  ( -80.38852960328463837, 142.4310355314557910, 90.01150445221239238 ) ) ;
#265 = EDGE_LOOP ( 'NONE', ( #146, #22, #254, #311, #111, #378, #140, #220 ) ) ;
#266 = VECTOR ( 'NONE', #332, 1000.000000000000000 ) ;
#267 = ADVANCED_FACE ( 'NONE', ( #126 ), #153, .F. ) ;
#268 = DIRECTION ( 'NONE',  ( -1.000000000000000000, -0.000000000000000000, -0.000000000000000000 ) ) ;
#269 = EDGE_LOOP ( 'NONE', ( #138, #202, #297, #383 ) ) ;
#270 = CARTESIAN_POINT ( 'NONE',  ( -80.78852960328464405, 84.40659341147951977, 67.05698914522911025 ) ) ;
#271 = ORIENTED_EDGE ( 'NONE', *, *, #276, .T. ) ;
#272 = DIRECTION ( 'NONE',  ( 0.000000000000000000, 0.000000000000000000, -1.000000000000000000 ) ) ;
#273 = VECTOR ( 'NONE', #253, 1000.000000000000000 ) ;
#274 = AXIS2_PLACEMENT_3D ( 'NONE', #206, #173, #52 ) ;
#275 = FACE_OUTER_BOUND ( 'NONE', #160, .T. ) ;
#276 = EDGE_CURVE ( 'NONE', #132, #130, #79, .T. ) ;
#277 = CARTESIAN_POINT ( 'NONE',  ( -80.38852960328463837, 86.94190798175786483, 118.6057407317052679 ) ) ;
#278 = DIRECTION ( 'NONE',  ( 0.000000000000000000, 0.000000000000000000, -1.000000000000000000 ) ) ;
#279 = CARTESIAN_POINT ( 'NONE',  ( -80.38852960328463837, 75.27958632450673804, 76.11470537821938365 ) ) ;
#280 = EDGE_CURVE ( 'NONE', #195, #200, #319, .T. ) ;
#281 = AXIS2_PLACEMENT_3D ( 'NONE', #369, #194, #73 ) ;
#282 = CARTESIAN_POINT ( 'NONE',  ( -80.78852960328464405, 142.4310355314437402, 136.9993391091380772 ) ) ;
#283 = DIRECTION ( 'NONE',  ( 0.000000000000000000, 0.7097959797102828539, -0.7044073162504203012 ) ) ;
#284 = DIRECTION ( 'NONE',  ( 0.000000000000000000, -1.000000000000000000, -1.233172445557780189E-13 ) ) ;
#285 = CIRCLE ( 'NONE', #91, 5.099999999999993427 ) ;
#286 = DIRECTION ( 'NONE',  ( 0.000000000000000000, 0.7097959797102828539, -0.7044073162504203012 ) ) ;
#287 = EDGE_CURVE ( 'NONE', #200, #130, #124, .T. ) ;
#288 = ORIENTED_EDGE ( 'NONE', *, *, #72, .T. ) ;
#289 = DIRECTION ( 'NONE',  ( 1.000000000000000000, 0.000000000000000000, 0.000000000000000000 ) ) ;
#290 = DIRECTION ( 'NONE',  ( -0.000000000000000000, 1.000000000000000000, 2.560976228518436364E-13 ) ) ;
#291 = VERTEX_POINT ( 'NONE', #166 ) ;
#292 = CARTESIAN_POINT ( 'NONE',  ( -80.38852960328463837, 86.94190798175786483, 118.6057407317052679 ) ) ;
#293 = ORIENTED_EDGE ( 'NONE', *, *, #123, .F. ) ;
#294 = DIRECTION ( 'NONE',  ( -0.000000000000000000, 0.7044073162504204122, 0.7097959797102829649 ) ) ;
#295 = ORIENTED_EDGE ( 'NONE', *, *, #276, .F. ) ;
#296 =( LENGTH_UNIT ( ) NAMED_UNIT ( * ) SI_UNIT ( .MILLI., .METRE. ) );
#297 = ORIENTED_EDGE ( 'NONE', *, *, #29, .F. ) ;
#298 = ORIENTED_EDGE ( 'NONE', *, *, #93, .F. ) ;
#299 = ORIENTED_EDGE ( 'NONE', *, *, #35, .T. ) ;
#300 = DIRECTION ( 'NONE',  ( 0.000000000000000000, -0.3946237708965886770, 0.9188427936504462989 ) ) ;
#301 = ADVANCED_FACE ( 'NONE', ( #336 ), #258, .F. ) ;
#302 = DIRECTION ( 'NONE',  ( 0.000000000000000000, 1.000000000000000000, 3.895441930827375950E-13 ) ) ;
#303 = DIRECTION ( 'NONE',  ( 0.000000000000000000, 1.233172445557780189E-13, -1.000000000000000000 ) ) ;
#304 = LINE ( 'NONE', #356, #339 ) ;
#305 = ADVANCED_FACE ( 'NONE', ( #13 ), #362, .F. ) ;
#306 = CARTESIAN_POINT ( 'NONE',  ( -80.38852960328463837, 132.5725510854288132, 159.9538544160975846 ) ) ;
#307 = LINE ( 'NONE', #282, #167 ) ;
#308 = DIRECTION ( 'NONE',  ( 0.000000000000000000, 1.000000000000000000, 3.895441930827375950E-13 ) ) ;
#309 = PRODUCT_DEFINITION_FORMATION_WITH_SPECIFIED_SOURCE ( 'ANY', '', #5, .NOT_KNOWN. ) ;
#310 = FILL_AREA_STYLE ('',( #316 ) ) ;
#311 = ORIENTED_EDGE ( 'NONE', *, *, #177, .F. ) ;
#312 = ADVANCED_FACE ( 'NONE', ( #8 ), #31, .F. ) ;
#313 = VERTEX_POINT ( 'NONE', #292 ) ;
#314 = AXIS2_PLACEMENT_3D ( 'NONE', #180, #96, #278 ) ;
#315 = VECTOR ( 'NONE', #268, 1000.000000000000000 ) ;
#316 = FILL_AREA_STYLE_COLOUR ( '', #74 ) ;
#317 = DIRECTION ( 'NONE',  ( 0.000000000000000000, 0.3946237708961178869, 0.9188427936506485816 ) ) ;
#318 = EDGE_CURVE ( 'NONE', #81, #322, #184, .T. ) ;
#319 = LINE ( 'NONE', #34, #21 ) ;
#320 = PRESENTATION_LAYER_ASSIGNMENT (  '', '', ( #99 ) ) ;
#321 = CARTESIAN_POINT ( 'NONE',  ( -80.38852960328463837, 84.40659341147951977, 67.05698914522911025 ) ) ;
#322 = VERTEX_POINT ( 'NONE', #95 ) ;
#323 = CARTESIAN_POINT ( 'NONE',  ( -80.38852960328463837, 0.000000000000000000, 0.000000000000000000 ) ) ;
#324 = ORIENTED_EDGE ( 'NONE', *, *, #280, .T. ) ;
#325 = CARTESIAN_POINT ( 'NONE',  ( -80.78852960328464405, 86.94190798175786483, 118.6057407317052679 ) ) ;
#326 = ORIENTED_EDGE ( 'NONE', *, *, #242, .T. ) ;
#327 = PLANE ( 'NONE',  #4 ) ;
#328 = ORIENTED_EDGE ( 'NONE', *, *, #318, .T. ) ;
#329 = VECTOR ( 'NONE', #372, 1000.000000000000000 ) ;
#330 =( NAMED_UNIT ( * ) PLANE_ANGLE_UNIT ( ) SI_UNIT ( $, .RADIAN. ) );
#331 = ORIENTED_EDGE ( 'NONE', *, *, #141, .F. ) ;
#332 = DIRECTION ( 'NONE',  ( -1.000000000000000000, -0.000000000000000000, -0.000000000000000000 ) ) ;
#333 = CIRCLE ( 'NONE', #187, 5.099999999999993427 ) ;
#334 = EDGE_CURVE ( 'NONE', #348, #80, #67, .T. ) ;
#335 = FACE_OUTER_BOUND ( 'NONE', #265, .T. ) ;
#336 = FACE_OUTER_BOUND ( 'NONE', #225, .T. ) ;
#337 = CARTESIAN_POINT ( 'NONE',  ( -80.38852960328463837, 142.4310355314557910, 90.01150445221239238 ) ) ;
#338 = CARTESIAN_POINT ( 'NONE',  ( -80.38852960328463837, 84.40659341145575922, 159.9538544160916445 ) ) ;
#339 = VECTOR ( 'NONE', #241, 1000.000000000000000 ) ;
#340 = CARTESIAN_POINT ( 'NONE',  ( -80.38852960328463837, 75.27958632448758181, 150.8961381830966673 ) ) ;
#341 = EDGE_CURVE ( 'NONE', #350, #207, #162, .T. ) ;
#342 = CARTESIAN_POINT ( 'NONE',  ( -80.78852960328464405, 75.27958632448758181, 150.8961381830966673 ) ) ;
#343 = CARTESIAN_POINT ( 'NONE',  ( -80.78852960328464405, 142.4310355314437402, 136.9993391091380772 ) ) ;
#344 = EDGE_CURVE ( 'NONE', #45, #207, #69, .T. ) ;
#345 = LINE ( 'NONE', #107, #259 ) ;
#346 = CARTESIAN_POINT ( 'NONE',  ( -80.78852960328464405, 86.94190798175786483, 113.5057407317052736 ) ) ;
#347 = EDGE_LOOP ( 'NONE', ( #172, #204, #151, #328 ) ) ;
#348 = VERTEX_POINT ( 'NONE', #270 ) ;
#349 = ADVANCED_FACE ( 'NONE', ( #178, #110 ), #327, .T. ) ;
#350 = VERTEX_POINT ( 'NONE', #325 ) ;
#351 = FACE_OUTER_BOUND ( 'NONE', #269, .T. ) ;
#352 = VERTEX_POINT ( 'NONE', #86 ) ;
#353 = DIRECTION ( 'NONE',  ( 0.000000000000000000, -1.000000000000000000, -2.563625224514887169E-13 ) ) ;
#354 = EDGE_LOOP ( 'NONE', ( #373, #263, #78, #229 ) ) ;
#355 = AXIS2_PLACEMENT_3D ( 'NONE', #338, #216, #197 ) ;
#356 = CARTESIAN_POINT ( 'NONE',  ( -80.38852960328463837, 84.40659341145575922, 159.9538544160916445 ) ) ;
#357 = CARTESIAN_POINT ( 'NONE',  ( -80.78852960328464405, 0.000000000000000000, 0.000000000000000000 ) ) ;
#358 = FACE_BOUND ( 'NONE', #198, .T. ) ;
#359 = VECTOR ( 'NONE', #300, 1000.000000000000114 ) ;
#360 = DIRECTION ( 'NONE',  ( 0.000000000000000000, -3.895441930827375950E-13, 1.000000000000000000 ) ) ;
#361 = LINE ( 'NONE', #393, #359 ) ;
#362 = PLANE ( 'NONE',  #355 ) ;
#363 = EDGE_LOOP ( 'NONE', ( #83, #368, #192, #26 ) ) ;
#364 = CARTESIAN_POINT ( 'NONE',  ( -80.78852960328464405, 75.27958632448758181, 150.8961381830966673 ) ) ;
#365 = LINE ( 'NONE', #340, #53 ) ;
#366 = ADVANCED_FACE ( 'NONE', ( #351 ), #235, .F. ) ;
#367 = CARTESIAN_POINT ( 'NONE',  ( -80.78852960328464405, 86.94190798175786483, 108.4057407317052792 ) ) ;
#368 = ORIENTED_EDGE ( 'NONE', *, *, #344, .T. ) ;
#369 = CARTESIAN_POINT ( 'NONE',  ( -80.38852960328463837, 86.94190798175786483, 113.5057407317052736 ) ) ;
#370 = EDGE_CURVE ( 'NONE', #322, #195, #18, .T. ) ;
#371 = PRODUCT_RELATED_PRODUCT_CATEGORY ( 'part', '', ( #5 ) ) ;
#372 = DIRECTION ( 'NONE',  ( 0.000000000000000000, -0.7097959797099222534, -0.7044073162507837882 ) ) ;
#373 = ORIENTED_EDGE ( 'NONE', *, *, #334, .T. ) ;
#374 =( GEOMETRIC_REPRESENTATION_CONTEXT ( 3 ) GLOBAL_UNCERTAINTY_ASSIGNED_CONTEXT ( ( #61 ) ) GLOBAL_UNIT_ASSIGNED_CONTEXT ( ( #161, #251, #104 ) ) REPRESENTATION_CONTEXT ( 'NONE', 'WORKASPACE' ) );
#375 = CARTESIAN_POINT ( 'NONE',  ( -80.78852960328464405, 132.5725510854526306, 67.05698914524786858 ) ) ;
#376 = CARTESIAN_POINT ( 'NONE',  ( -80.38852960328463837, 75.27958632450673804, 76.11470537821938365 ) ) ;
#377 = ORIENTED_EDGE ( 'NONE', *, *, #341, .T. ) ;
#378 = ORIENTED_EDGE ( 'NONE', *, *, #280, .F. ) ;
#379 = PLANE ( 'NONE',  #274 ) ;
#380 = ORIENTED_EDGE ( 'NONE', *, *, #344, .F. ) ;
#381 = EDGE_CURVE ( 'NONE', #352, #144, #46, .T. ) ;
#382 = VECTOR ( 'NONE', #246, 1000.000000000000000 ) ;
#383 = ORIENTED_EDGE ( 'NONE', *, *, #93, .T. ) ;
#384 = CARTESIAN_POINT ( 'NONE',  ( -80.38852960328463837, 142.4310355314437402, 136.9993391091380772 ) ) ;
#385 = EDGE_LOOP ( 'NONE', ( #24, #85, #262, #56, #113, #115, #71, #299 ) ) ;
#386 = ADVANCED_FACE ( 'NONE', ( #201 ), #379, .F. ) ;
#387 = VERTEX_POINT ( 'NONE', #321 ) ;
#388 = CIRCLE ( 'NONE', #314, 5.099999999999993427 ) ;
#389 = VECTOR ( 'NONE', #136, 1000.000000000000000 ) ;
#390 = CARTESIAN_POINT ( 'NONE',  ( -80.38852960328463837, 142.4310355314437402, 136.9993391091380772 ) ) ;
#391 = LINE ( 'NONE', #119, #238 ) ;
#392 = PLANE ( 'NONE',  #142 ) ;
#393 = CARTESIAN_POINT ( 'NONE',  ( -80.38852960328463837, 142.4310355314437402, 136.9993391091380772 ) ) ;
ENDSEC;
END-ISO-10303-21;
